<?xml version="1.0" encoding="UTF-8" standalone="no"?>
<!DOCTYPE svg PUBLIC "-//W3C//DTD SVG 1.1//EN" "http://www.w3.org/Graphics/SVG/1.1/DTD/svg11.dtd">
<!-- Created with Vectornator (http://vectornator.io/) -->
<svg height="2800.0px" stroke-miterlimit="10" style="fill-rule:nonzero;clip-rule:evenodd;stroke-linecap:round;stroke-linejoin:round;" version="1.1" viewBox="0 0 5500 2800" width="5500.000000000001px" xml:space="preserve" xmlns="http://www.w3.org/2000/svg" xmlns:xlink="http://www.w3.org/1999/xlink">
<defs/>
<g id="Duck2">
<path d="M346.847 1006.28C346.847 906.729 372.555 831.246 423.971 779.83C475.387 728.414 549.776 702.706 647.139 702.706C746.689 702.706 823.266 728.961 876.87 781.471C930.474 833.981 957.276 908.917 957.276 1006.28L957.276 1578.97C957.276 1657.73 939.225 1722.28 903.125 1772.6C867.024 1822.92 815.608 1856.29 748.877 1872.69L748.877 1884.18C748.877 1891.84 749.697 1897.04 751.338 1899.77C752.979 1902.51 758.175 1903.87 766.927 1903.87L894.92 1903.87L894.92 2117.19L789.9 2117.19C749.424 2117.19 714.143 2114.19 684.06 2108.17C653.976 2102.15 629.088 2091.49 609.397 2076.17C589.706 2060.86 575.211 2040.07 565.912 2013.82C556.613 1987.56 551.964 1953.65 551.964 1912.08L551.964 1874.34C485.233 1859.02 434.364 1826.47 399.357 1776.7C364.35 1726.92 346.847 1661.01 346.847 1578.97L346.847 1006.28ZM642.216 1601.94C642.216 1619.44 645.498 1628.2 652.061 1628.2C658.625 1628.2 661.907 1619.44 661.907 1601.94L661.907 984.947C661.907 967.444 658.625 958.692 652.061 958.692C645.498 958.692 642.216 967.444 642.216 984.947L642.216 1601.94Z" fill="#ffffff" fill-rule="nonzero" opacity="0.961951" stroke="none"/>
<path d="M1272.34 719.116L1272.34 1601.94C1272.34 1619.44 1275.62 1628.2 1282.18 1628.2C1288.75 1628.2 1292.03 1619.44 1292.03 1601.94L1292.03 719.116L1587.4 719.116L1587.4 1578.97C1587.4 1677.42 1560.59 1752.91 1506.99 1805.42C1453.39 1857.93 1376.81 1884.18 1277.26 1884.18C1178.8 1884.18 1104.14 1858.2 1053.27 1806.24C1002.4 1754.27 976.967 1678.52 976.967 1578.97L976.967 719.116L1272.34 719.116Z" fill="#ffffff" fill-rule="nonzero" opacity="0.961951" stroke="none"/>
<g opacity="1">
<path d="M2494.84 702.722C2397.48 702.722 2323.07 728.424 2271.66 779.84C2222.11 829.384 2196.7 901.497 2194.89 995.735C2195.01 995.624 2195.12 995.493 2195.24 995.383C2214.12 977.828 2236.29 966.162 2255.94 963.5C2261.02 962.811 2265.95 962.641 2270.69 963.06C2303.85 965.997 2327.81 994.333 2332.88 1022.44C2337.22 1046.53 2320.9 1063.28 2310.92 1072.06C2319.83 1082.38 2331.56 1098.02 2331.56 1118.61C2331.56 1139.09 2319.83 1155.45 2305.47 1165.6C2291.01 1175.84 2272.49 1181.17 2253.48 1179.75C2232.99 1178.22 2212.05 1166.2 2194.54 1149.27L2194.54 1578.95C2194.54 1678.5 2220.24 1754.3 2271.66 1806.26C2323.07 1858.23 2397.48 1884.17 2494.84 1884.17C2594.39 1884.17 2670.92 1857.89 2724.53 1805.38C2778.13 1752.87 2804.98 1677.41 2804.98 1578.95L2804.98 1309.83L2509.6 1309.83L2509.6 1601.96C2509.6 1619.47 2506.33 1628.22 2499.76 1628.22C2493.2 1628.22 2489.92 1619.47 2489.92 1601.96L2489.92 984.931C2489.92 967.428 2493.2 958.669 2499.76 958.669C2506.33 958.668 2509.6 967.427 2509.6 984.931L2509.6 1277.07L2804.98 1277.07L2804.98 1006.27C2804.98 908.912 2778.13 834.018 2724.53 781.508C2670.92 728.998 2594.39 702.722 2494.84 702.722Z" fill="#ffffff" fill-rule="nonzero" opacity="1" stroke="none"/>
</g>
<path d="M3120.03 1167.09L3139.72 1167.09L3139.72 719.116L3451.5 719.116L3382.58 1293.44L3451.5 1867.77L3139.72 1867.77L3139.72 1421.44L3120.03 1421.44L3120.03 1867.77L2824.66 1867.77L2824.66 719.116L3120.03 719.116L3120.03 1167.09Z" fill="#ffffff" fill-rule="nonzero" opacity="0.961951" stroke="none"/>
<path d="M3761.64 975.102L3761.64 1134.27L3892.91 1134.27L3892.91 1390.26L3761.64 1390.26L3761.64 1611.79L3892.91 1611.79L3892.91 1867.77L3466.27 1867.77L3466.27 719.116L3892.91 719.116L3892.91 975.102L3761.64 975.102Z" fill="#ffffff" fill-rule="nonzero" opacity="0.961951" stroke="none"/>
<path d="M4214.54 719.116C4312.99 719.116 4389.02 744.003 4442.63 793.778C4496.23 843.553 4523.03 920.951 4523.03 1025.97L4523.03 1034.18C4523.03 1082.31 4517.56 1124.15 4506.62 1159.71C4495.68 1195.26 4482.01 1225.07 4465.6 1249.14C4449.19 1273.21 4431.14 1290.98 4411.45 1302.47C4391.76 1313.96 4373.16 1319.7 4355.66 1319.7L4355.66 1339.39C4373.16 1339.39 4391.76 1345.95 4411.45 1359.08C4431.14 1372.21 4449.19 1390.81 4465.6 1414.87C4482.01 1438.94 4495.68 1468.48 4506.62 1503.48C4517.56 1538.49 4523.03 1577.87 4523.03 1621.63L4523.03 1634.76C4523.03 1678.52 4523.85 1719.54 4525.49 1757.83C4527.14 1796.12 4531.78 1832.77 4539.44 1867.77L4244.07 1867.77C4236.42 1831.67 4231.77 1794.48 4230.13 1756.19C4228.48 1717.9 4227.66 1676.33 4227.66 1631.48L4227.66 1483.79C4227.66 1471.76 4227.12 1464.37 4226.02 1461.64C4224.93 1458.9 4220.01 1457.54 4211.25 1457.54L4207.97 1457.54L4207.97 1867.77L3912.6 1867.77L3912.6 719.116L4214.54 719.116ZM4207.97 1201.55L4211.25 1201.55C4220.01 1201.55 4224.93 1200.18 4226.02 1197.45C4227.12 1194.71 4227.66 1187.33 4227.66 1175.3L4227.66 999.716C4227.66 988.776 4227.12 981.939 4226.02 979.204C4224.93 976.469 4220.01 975.102 4211.25 975.102L4207.97 975.102L4207.97 1201.55Z" fill="#ffffff" fill-rule="nonzero" opacity="0.961951" stroke="none"/>
<path d="M4857.78 1112.94L4857.78 984.947C4857.78 967.444 4854.5 958.692 4847.94 958.692C4841.37 958.692 4838.09 967.444 4838.09 984.947L4838.09 1076.84C4838.09 1088.87 4838.91 1098.99 4840.55 1107.2C4842.2 1115.4 4847.12 1123.61 4855.32 1131.81C4863.53 1140.02 4876.38 1149.59 4893.88 1160.53C4911.39 1171.47 4936 1185.69 4967.73 1203.19L5012.03 1227.81C5040.48 1243.12 5063.72 1260.08 5081.77 1278.68C5099.82 1297.27 5114.04 1319.15 5124.44 1344.31C5134.83 1369.47 5142.21 1399.28 5146.59 1433.74C5150.97 1468.2 5153.15 1509.5 5153.15 1557.63L5153.15 1578.97C5153.15 1677.42 5126.35 1752.91 5072.75 1805.42C5019.14 1857.93 4942.57 1884.18 4843.02 1884.18C4744.56 1884.18 4669.9 1858.2 4619.03 1806.24C4568.16 1754.27 4542.72 1678.52 4542.72 1578.97L4542.72 1473.95L4838.09 1473.95L4838.09 1601.94C4838.09 1619.44 4841.37 1628.2 4847.94 1628.2C4854.5 1628.2 4857.78 1619.99 4857.78 1603.58L4857.78 1506.77C4857.78 1494.73 4856.96 1484.89 4855.32 1477.23C4853.68 1469.57 4849.31 1461.91 4842.2 1454.26C4835.08 1446.6 4823.6 1437.85 4807.74 1428C4791.87 1418.16 4769.72 1405.03 4741.28 1388.62L4688.77 1359.08C4660.32 1342.67 4636.53 1324.9 4617.39 1305.75C4598.24 1286.61 4583.2 1263.91 4572.26 1237.65C4561.32 1211.4 4553.66 1180.77 4549.29 1145.76C4544.91 1110.75 4542.72 1069.18 4542.72 1021.05L4542.72 1006.28C4542.72 906.729 4568.43 831.246 4619.85 779.83C4671.26 728.414 4745.65 702.706 4843.02 702.706C4942.57 702.706 5019.14 728.961 5072.75 781.471C5126.35 833.981 5153.15 908.917 5153.15 1006.28L5153.15 1112.94L4857.78 1112.94Z" fill="#ffffff" fill-rule="nonzero" opacity="0.961951" stroke="none"/>
<path d="M1920.11 1066.74C1920.11 1035.75 1945.24 1010.62 1976.23 1010.62C2007.23 1010.62 2032.35 1035.75 2032.35 1066.74C2032.35 1097.74 2007.23 1122.86 1976.23 1122.86C1945.24 1122.86 1920.11 1097.74 1920.11 1066.74Z" fill="#ffffff" fill-rule="nonzero" opacity="1" stroke="none"/>
<path d="M1750.22 1839.16C1750.22 1839.16 1745.45 1002.83 1750.22 964.806C1755 926.782 1761.35 808.481 1894.76 809.611C2028.17 810.742 2039.79 926.782 2041.67 964.806C2043.55 1002.83 2041.67 1839.16 2041.67 1839.16L2187.4 1839.16C2187.4 1839.16 2170.26 1014.86 2167.05 964.806C2163.84 914.754 2154.79 690.902 1894.76 682.988C1634.73 675.074 1620.5 927.208 1616.93 962.545C1613.36 997.883 1604.5 1839.16 1604.5 1839.16L1750.22 1839.16Z" fill="#ffffff" fill-rule="nonzero" opacity="1" stroke="none"/>
<path d="M2179.77 1070.41C2180.98 1022.77 2231.94 987.971 2258.81 984.328C2285.67 980.686 2307.99 1002.84 2312.18 1026.13C2316.38 1049.42 2278.11 1069.44 2278.11 1069.44C2278.11 1069.44 2310.49 1094.61 2310.49 1118.58C2310.49 1142.55 2283.16 1160.87 2255.11 1158.78C2227.06 1156.68 2178.55 1118.05 2179.77 1070.41Z" fill="#ffffff" fill-rule="nonzero" opacity="1" stroke="none"/>
</g>
</svg>
